<svg width="429.00000000000006" height="66.78506448994894" viewBox="0 0 353.8114424304582 55.080000000000005" class="looka-1j8o68f"><defs id="SvgjsDefs1154"></defs><g id="SvgjsG1155" featurekey="nameLeftFeature-0" transform="matrix(2.2194819538021853,0,0,2.2194819538021853,-1.3316879022835502,-3.5388365315326347)" fill="#fae398"><path d="M7.96 8.08 c-3.12 0 -5.12 2.16 -5.12 5.02 c0 2.88 2.24 5.04 5.12 5.04 c2.38 0 3.6 -1.1 4.18 -1.8 l0 2.52 c-1.02 0.86 -2.62 1.24 -4.32 1.24 c-4.32 0 -7.22 -3.14 -7.22 -7 s2.9 -7 7.22 -7 c2.24 0 3.68 0.66 4.32 1.24 l0 2.54 c-0.24 -0.34 -1.64 -1.8 -4.18 -1.8 z M22.38 6.279999999999999 l2.16 0 l0 13.64 l-2.16 0 l0 -4.26 c-0.22 -1.22 -1.98 -1.54 -3.28 -1.68 c-1.1 -0.12 -2.36 -0.34 -3.18 -0.7 l0 6.64 l-2.16 0 l0 -13.64 l2.16 0 l0 4.18 c0.22 1.12 2.38 1.4 3.18 1.52 c1.18 0.18 2.34 0.38 3.28 0.84 l0 -6.54 z M28.7 19.92 l-2.16 0 l0 -13.64 l2.16 0 l0 13.64 z M44.8 14.9 l-1 2.52 l-2.26 0 l4.6 -11.14 l2.16 0 l4.58 11.14 l-2.26 0 l-1 -2.52 l-4.82 0 z M38.66 15.2 c1.26 1.66 3.3 5.18 8.44 5.18 c2.02 0 3.62 -0.46 4.46 -0.8 l0 2.08 c-1.38 0.46 -3.1 0.66 -4.46 0.66 c-3.38 0 -6.58 -1 -10 -5.92 c-0.88 -1.26 -1.8 -1.86 -3.34 -1.86 l-0.9 0 l0 5.38 l-2.16 0 l0 -13.64 l4.92 0 c2.92 0.02 5.14 0.88 5.14 4.12 c0 2.44 -1.28 3.34 -3.1 3.64 c0.36 0.36 0.68 0.74 1 1.16 z M34.76 12.559999999999999 c1.98 0.02 3.76 0.06 3.76 -2.16 c0 -1.9 -1.24 -2.14 -2.8 -2.14 l-2.86 0 l0 4.3 l1.9 0 z M47.22 8.8 l-1.64 4.12 l3.26 0 z M59.7 12.2 l6.4 0 l0 5.94 c-1 1.12 -2.74 1.96 -5.12 1.96 c-4.6 0 -7.38 -3.14 -7.38 -7 s2.88 -7 7.28 -7 c2.02 0 3.56 0.64 4.26 1.24 l0 2.54 c-0.52 -0.7 -2 -1.8 -4.16 -1.8 c-3.16 0 -5.14 2.16 -5.14 5.02 c0 2.88 2.02 5.04 5.12 5.04 c1.56 0 2.32 -0.42 3 -0.8 l0 -3.16 l-4.26 0 l0 -1.98 z"></path></g><g id="SvgjsG1156" featurekey="inlineSymbolFeature-0" transform="matrix(0.7722136787297416,0,0,0.7722136787297416,149.63449313971316,-11.070455639977899)" fill="#fae398"><g xmlns="http://www.w3.org/2000/svg"><g><path d="M50.023,52.662c8.141,0,20.761-8.777,13.741-23.499c-0.393-0.824,0.732-1.517,1.283-0.79    c11.625,15.355-1.063,32.072-15.024,32.072h-0.045c-13.961,0-26.649-16.717-15.024-32.072c0.551-0.728,1.676-0.034,1.283,0.79    C29.217,43.886,42.063,52.662,50.023,52.662L50.023,52.662z"></path><path d="M60.879,65.505c9.612-4.494,19.223-0.315,19.223,9.098c0,6.348-5.974,14.285-15.584,9.534    c-0.664-0.328-0.323-1.321,0.405-1.183c5.695,1.082,9.701-2.839,9.701-7.259c0-6.563-7.359-6.012-11.733-3.508L39.121,83.852    c-9.612,4.494-19.223,0.315-19.223-9.098c0-6.348,5.974-14.285,15.584-9.534c0.664,0.328,0.323,1.321-0.405,1.183    c-5.695-1.082-9.701,2.839-9.701,7.259c0,6.563,7.359,6.012,11.733,3.508l23.771-11.667L60.879,65.505z"></path><path d="M50,14.336c-9.557,0-11.465,14.069-5.809,19.744c0.591,0.593,1.536-0.166,1.086-0.872    C42.275,28.49,44.737,20.636,50,20.645c5.263-0.009,7.725,7.845,4.723,12.562c-0.45,0.707,0.495,1.466,1.086,0.872    C61.465,28.405,59.557,14.336,50,14.336z"></path></g></g></g><g id="SvgjsG1157" featurekey="nameRightFeature-0" transform="matrix(2.571428746593254,0,0,2.571428746593254,214.02857174386784,-5.685718787446621)" fill="#fae398"><path d="M11.7 12.120000000000001 c3.72 1.22 4.8 2.26 4.8 4.08 c0 2.88 -2.84 3.9 -5.28 3.9 c-1.76 0 -3.46 -0.54 -4.36 -1.16 l0 -2.24 s1.9 1.42 4.36 1.42 c0.48 0 3.02 -0.06 3.02 -1.68 c0 -1.3 -0.98 -1.68 -3.14 -2.4 c-3.54 -1.14 -4.5 -2.38 -4.5 -4.14 c0 -0.7 0.4 -3.8 5.06 -3.8 c1.54 0 3.38 0.44 4.2 0.98 l0 2.18 c-0.12 -0.18 -1.92 -1.18 -4.18 -1.18 c-2.4 0 -2.82 1.1 -2.82 1.82 c0 0.6 0.2 1.36 2.84 2.22 z M24.98 6.279999999999999 l5.64 13.64 l-2.26 0 l-1.56 -3.82 l-1.38 0 c-1.3 0 -2.7 0.24 -3.6 0.86 c-0.8 0.54 -1.68 1.4 -2.2 2.58 l-0.16 0.38 l-2.26 0 l5.64 -13.64 l2.14 0 z M25.400000000000002 14.18 l0.62 0 l-2.12 -5.2 l-2.56 6.32 c1.04 -0.66 2 -1.12 4.06 -1.12 z M40.72 6.279999999999999 l2.16 0 l0 13.64 l-2.02 0 l0 -0.98 c0 -2.06 -1.08 -3.72 -2.36 -4.88 c-0.98 -0.88 -2.08 -1.62 -3.1 -2.38 c-0.54 -0.4 -1.04 -0.82 -1.5 -1.26 l0 9.5 l-2.16 0 l0 -13.64 l2.06 0 c0.02 0.98 0.48 1.74 1.16 2.42 c0.8 0.84 1.88 1.58 2.94 2.36 c1 0.74 2 1.56 2.82 2.52 l0 -7.3 z M54.36 8.26 l-7.32 0 l0 4.64 c1.22 -0.88 2.72 -1.44 5.36 -1.44 l0.98 0 l0 1.94 l-0.98 0 c-2.62 0 -4.9 0.9 -5.36 2.48 l0 2.08 l7.32 0 l0 1.96 l-9.48 0 l0 -13.64 l9.48 0 l0 1.98 z"></path></g></svg>